<?xml version="1.0" standalone="no"?>
<!DOCTYPE svg PUBLIC "-//W3C//DTD SVG 20010904//EN"
 "http://www.w3.org/TR/2001/REC-SVG-20010904/DTD/svg10.dtd">
<svg version="1.0" xmlns="http://www.w3.org/2000/svg"
 width="16.000000pt" height="16.000000pt" viewBox="0 0 16.000000 16.000000"
 preserveAspectRatio="xMidYMid meet">

<g transform="translate(0.000000,16.000000) scale(0.100000,-0.100000)"
fill="#000000" stroke="none">
<path d="M110 133 c0 -16 6 -35 12 -41 10 -10 10 -15 -2 -22 -12 -8 -11 -10 6
-10 25 0 36 28 25 68 -11 39 -41 42 -41 5z"/>
<path d="M76 93 c3 -17 1 -39 -5 -50 -9 -15 -11 -13 -12 17 -1 28 -3 30 -6 10
-3 -14 -14 -33 -26 -42 -22 -18 -22 -18 11 -18 18 0 40 6 48 14 18 19 18 57
-1 82 -14 18 -14 17 -9 -13z"/>
</g>
</svg>
